HIERARCHY
ROOT Hips
{
	OFFSET 0.000000 0.000000 0.000000
	CHANNELS 6 Xposition Yposition Zposition Xrotation Yrotation Zrotation
	JOINT LeftUpLeg_virtual
	{
		OFFSET 0.000000 0.000000 0.000000
		CHANNELS 3 Xrotation Yrotation Zrotation
		JOINT LeftUpLeg
		{
			OFFSET 13.026900 -6.336304 -1.092800
			CHANNELS 3 Xrotation Yrotation Zrotation
			JOINT LeftLeg
			{
				OFFSET 0.524474 -46.096886 9.782700
				CHANNELS 3 Xrotation Yrotation Zrotation
				JOINT LeftFoot
				{
					OFFSET -0.524474 -53.427422 -12.948200
					CHANNELS 3 Xrotation Yrotation Zrotation
					JOINT LeftToeBase
					{
						OFFSET 0.192200 -14.009700 16.364100
						CHANNELS 3 Xrotation Yrotation Zrotation
						JOINT LeftToe_End
						{
							OFFSET -1.784700 -0.561700 9.474800
							CHANNELS 3 Xrotation Yrotation Zrotation
							End Site
							{
								OFFSET 0 0 0
							}
						}
					}
				}
			}
		}
	}
	JOINT RightUpLeg_virtual
	{
		OFFSET 0.000000 0.000000 0.000000
		CHANNELS 3 Xrotation Yrotation Zrotation
		JOINT RightUpLeg
		{
			OFFSET -12.883000 -6.336304 -1.092800
			CHANNELS 3 Xrotation Yrotation Zrotation
			JOINT RightLeg
			{
				OFFSET -0.524587 -46.096825 9.782800
				CHANNELS 3 Xrotation Yrotation Zrotation
				JOINT RightFoot
				{
					OFFSET 0.524587 -53.427383 -12.948300
					CHANNELS 3 Xrotation Yrotation Zrotation
					JOINT RightToeBase
					{
						OFFSET -0.192200 -14.009700 16.364100
						CHANNELS 3 Xrotation Yrotation Zrotation
						JOINT RightToe_End
						{
							OFFSET 1.784700 -0.561700 9.474800
							CHANNELS 3 Xrotation Yrotation Zrotation
							End Site
							{
								OFFSET 0 0 0
							}
						}
					}
				}
			}
		}
	}
	JOINT Spine_virtual
	{
		OFFSET 0.000000 0.000000 0.000000
		CHANNELS 3 Xrotation Yrotation Zrotation
		JOINT Spine
		{
			OFFSET 0.072000 7.257294 -0.789700
			CHANNELS 3 Xrotation Yrotation Zrotation
			JOINT Spine1
			{
				OFFSET 0.000000 12.508769 -0.658067
				CHANNELS 3 Xrotation Yrotation Zrotation
				JOINT Spine1_split
				{
					OFFSET 0.000000 12.508769 -0.658067
					CHANNELS 3 Xrotation Yrotation Zrotation
					JOINT Spine2
					{
						OFFSET 0.000000 12.508769 -0.658067
						CHANNELS 3 Xrotation Yrotation Zrotation
						JOINT Neck_virtual
						{
							OFFSET 0.000000 0.000000 0.000000
							CHANNELS 3 Xrotation Yrotation Zrotation
							JOINT Neck
							{
								OFFSET 0.000000 14.033295 7.520400
								CHANNELS 3 Xrotation Yrotation Zrotation
								JOINT Head
								{
									OFFSET 0.000000 8.198502 5.703100
									CHANNELS 3 Xrotation Yrotation Zrotation
									JOINT HeadTop_End
									{
										OFFSET 0.000000 17.760803 13.332701
										CHANNELS 3 Xrotation Yrotation Zrotation
										End Site
										{
											OFFSET 0 0 0
										}
									}
								}
							}
						}
						JOINT LeftShoulder_virtual
						{
							OFFSET 0.000000 0.000000 0.000000
							CHANNELS 3 Xrotation Yrotation Zrotation
							JOINT LeftShoulder
							{
								OFFSET 6.292450 5.785301 -0.669000
								CHANNELS 3 Xrotation Yrotation Zrotation
								JOINT LeftShoulder_split
								{
									OFFSET 6.292450 5.785301 -0.669000
									CHANNELS 3 Xrotation Yrotation Zrotation
									JOINT LeftArm
									{
										OFFSET 13.907140 -6.093903 1.965100
										CHANNELS 3 Xrotation Yrotation Zrotation
										JOINT LeftForeArm
										{
											OFFSET 34.140198 0.000000 0.000000
											CHANNELS 3 Xrotation Yrotation Zrotation
											JOINT LeftHand
											{
												OFFSET 40.960209 0.000000 0.000000
												CHANNELS 3 Xrotation Yrotation Zrotation
												End Site
												{
													OFFSET 0 0 0
												}
											}
										}
									}
								}
							}
						}
						JOINT RightShoulder_virtual
						{
							OFFSET 0.000000 0.000000 0.000000
							CHANNELS 3 Xrotation Yrotation Zrotation
							JOINT RightShoulder
							{
								OFFSET -6.292450 5.785301 -0.669000
								CHANNELS 3 Xrotation Yrotation Zrotation
								JOINT RightShoulder_split
								{
									OFFSET -6.292450 5.785301 -0.669000
									CHANNELS 3 Xrotation Yrotation Zrotation
									JOINT RightArm
									{
										OFFSET -13.907140 -6.093903 1.965100
										CHANNELS 3 Xrotation Yrotation Zrotation
										JOINT RightForeArm
										{
											OFFSET -34.140198 0.000000 0.000000
											CHANNELS 3 Xrotation Yrotation Zrotation
											JOINT RightHand
											{
												OFFSET -40.960209 0.000000 0.000000
												CHANNELS 3 Xrotation Yrotation Zrotation
												End Site
												{
													OFFSET 0 0 0
												}
											}
										}
									}
								}
							}
						}
					}
				}
			}
		}
	}
}
MOTION
Frames: 10
Frame Time: 0.03333333
8.794515 17.135956 228.233475 0.000000 0.000000 0.000000 -94.413568 -1.252506 0.573113 -39.566681 -31.661089 32.464767 91.880743 -9.120282 4.302013 9.268953 -6.316562 -16.385096 -5.945374 -0.056021 -0.336116 0.000000 0.000000 0.000000 -97.644856 1.161041 1.771888 -47.290259 7.195627 -24.354312 91.643469 7.755127 -3.472404 5.595616 0.163648 14.791885 6.182702 0.297268 1.031908 0.000000 0.000000 0.000000 -95.138101 -1.664332 -1.665677 5.034150 -1.229270 2.085690 2.170030 -0.220809 -0.005872 0.598262 -1.157488 -0.121815 0.000000 0.000000 0.000000 0.720770 -0.608991 0.758919 9.997444 -1.643662 1.158135 20.322297 0.048531 0.543887 0.000000 0.000000 0.000000 -0.145818 -0.248126 0.146738 -0.008320 -16.206936 -5.312063 -3.767043 5.525793 -2.057899 66.383408 -21.131608 -39.962764 -0.715072 -39.134996 -0.707445 0.000000 0.000000 0.000000 0.112272 -0.954292 0.261397 -2.069552 4.074675 16.425572 9.347250 6.679931 -3.977351 71.244911 26.100622 22.925455 -0.025062 22.645140 0.155392 0.000000 0.000000 0.000000 
9.074039 17.060806 228.331909 0.000000 0.000000 0.000000 -94.641649 -1.667059 0.381053 -39.559790 -32.024360 31.018502 91.622801 -8.245400 4.345141 8.359130 -5.751651 -15.835331 -6.038025 -0.071811 -0.354380 0.000000 0.000000 0.000000 -97.401578 0.577522 1.366917 -46.994929 6.226397 -24.845358 90.553815 7.434773 -3.570906 4.020254 -0.005749 16.014089 6.355117 0.384805 0.825455 0.000000 0.000000 0.000000 -95.132172 -1.950345 -1.958387 5.493519 -1.245304 1.763890 2.352383 -0.208655 0.016957 0.549577 -0.992675 -0.061964 0.000000 0.000000 0.000000 0.894502 -0.576136 0.724905 10.719869 -2.275129 1.212812 22.084013 -0.922320 0.614466 0.000000 0.000000 0.000000 -0.057741 -0.211967 0.219928 0.122166 -16.444490 -5.624516 -3.079019 5.987621 -2.220030 65.798498 -20.371464 -40.222707 -1.187960 -40.119486 -1.026528 0.000000 0.000000 0.000000 0.203260 -0.936780 0.229671 -2.329349 3.673553 16.951163 9.854083 6.613018 -3.984060 69.586534 25.245578 23.018385 -0.151607 22.835175 0.415553 0.000000 0.000000 0.000000 
9.360391 16.946983 228.497925 0.000000 0.000000 0.000000 -94.739730 -2.321796 -0.087692 -39.389940 -31.891629 30.081123 91.313824 -7.267373 4.296302 7.392455 -5.205875 -15.313272 -6.490310 -0.098894 -0.344693 0.000000 0.000000 0.000000 -97.129593 -0.009202 0.911705 -46.464418 4.891803 -25.530819 89.316943 7.133197 -3.564528 2.247105 -0.035597 17.305889 6.398017 0.433103 0.534473 0.000000 0.000000 0.000000 -95.230056 -2.286981 -2.318350 6.107254 -1.304398 1.409725 2.641184 -0.224573 0.046006 0.694836 -1.035963 -0.137927 0.000000 0.000000 0.000000 1.101117 -0.580240 0.698053 11.581595 -2.764860 1.131790 23.630277 -1.756687 0.571171 0.000000 0.000000 0.000000 0.123651 -0.228706 0.262566 0.306926 -16.278349 -5.908013 -2.264238 6.173290 -2.302120 65.086088 -19.453277 -39.992892 -2.005372 -40.564630 -1.526551 0.000000 0.000000 0.000000 0.380277 -0.954521 0.182991 -2.556401 3.370928 17.304402 10.342450 6.598773 -4.022187 67.409002 24.416465 23.585651 -0.338826 23.266621 0.655672 0.000000 0.000000 0.000000 
9.604280 16.867599 228.602585 0.000000 0.000000 0.000000 -94.670875 -3.088020 -0.773008 -39.418849 -31.421240 29.594954 91.210831 -6.462389 4.266479 6.870942 -5.032636 -15.031824 -7.124854 -0.147103 -0.287907 0.000000 0.000000 0.000000 -96.865272 -0.536874 0.414008 -45.651724 3.279879 -26.291982 87.778033 6.878904 -3.491854 0.519401 0.050987 18.730713 6.088517 0.433788 0.179484 0.000000 0.000000 0.000000 -95.327680 -2.619564 -2.709613 6.788308 -1.404561 1.099786 3.027940 -0.247622 0.084998 0.822080 -1.222914 -0.194111 0.000000 0.000000 0.000000 1.360668 -0.616046 0.690281 12.559856 -3.120023 0.931681 24.930773 -2.409247 0.451080 0.000000 0.000000 0.000000 0.400979 -0.278204 0.286183 0.543311 -15.643140 -6.302467 -1.380927 6.049207 -2.211295 64.120040 -18.449967 -39.168912 -2.934481 -40.620822 -2.031058 0.000000 0.000000 0.000000 0.669506 -0.994632 0.146803 -2.768828 3.319352 17.656340 10.663913 6.690887 -4.102421 65.017739 23.693808 24.484509 -0.514533 23.670485 0.831041 0.000000 0.000000 0.000000 
9.797973 16.916451 228.546692 0.000000 0.000000 0.000000 -94.471352 -3.720853 -1.490170 -39.950494 -30.751366 29.245979 91.437218 -5.894458 4.249915 6.889794 -5.176470 -14.864138 -7.594206 -0.201495 -0.232532 0.000000 0.000000 0.000000 -96.652122 -0.953914 -0.114882 -44.485046 1.484820 -26.991608 85.736974 6.674608 -3.410749 -1.060136 0.147578 20.140937 5.664269 0.395735 -0.187556 0.000000 0.000000 0.000000 -95.293522 -2.922830 -3.147447 7.422939 -1.521820 0.921549 3.466320 -0.259913 0.133205 0.859630 -1.462712 -0.380621 0.000000 0.000000 0.000000 1.682177 -0.676515 0.688965 13.571544 -3.337763 0.650492 25.983870 -2.915409 0.321860 0.000000 0.000000 0.000000 0.752790 -0.336025 0.298259 0.823921 -14.420544 -6.951253 -0.414295 5.572464 -1.973710 62.995286 -17.496394 -37.730474 -3.748672 -40.710683 -2.418059 0.000000 0.000000 0.000000 1.069091 -1.052662 0.128221 -2.984005 3.607110 18.115550 10.700018 6.840105 -4.092372 62.655060 23.100736 25.417915 -0.643376 23.789259 0.932774 0.000000 0.000000 0.000000 
10.009962 17.099670 228.347046 0.000000 0.000000 0.000000 -94.135907 -4.076779 -2.083487 -41.089284 -30.140109 28.729794 92.007819 -5.480078 4.283809 7.382039 -5.512871 -14.809546 -7.649784 -0.234863 -0.246659 0.000000 0.000000 0.000000 -96.361791 -1.186519 -0.624490 -42.957307 -0.368832 -27.518016 83.124099 6.437589 -3.272322 -2.568683 0.115488 21.262420 5.456537 0.330987 -0.481258 0.000000 0.000000 0.000000 -95.083651 -3.196562 -3.645868 7.958866 -1.637763 0.928910 3.930836 -0.259702 0.177211 0.754788 -1.621884 -0.450659 0.000000 0.000000 0.000000 2.071608 -0.750880 0.691078 14.510759 -3.443210 0.345956 26.903043 -3.269167 0.218528 0.000000 0.000000 0.000000 1.168553 -0.391171 0.294157 1.160797 -12.606917 -7.926393 0.541340 4.824275 -1.615521 61.754547 -16.751802 -35.744651 -4.350822 -40.964159 -2.667515 0.000000 0.000000 0.000000 1.566524 -1.112528 0.118385 -3.208866 4.193360 18.695968 10.438835 7.002939 -4.056509 60.480984 22.561214 26.087771 -0.722776 23.633605 0.970736 0.000000 0.000000 0.000000 
10.276024 17.363678 227.950150 0.000000 0.000000 0.000000 -93.774850 -4.170337 -2.553106 -42.632446 -29.677063 27.892483 92.753730 -5.078896 4.336113 8.142532 -5.903309 -14.740950 -7.602303 -0.242617 -0.272447 0.000000 0.000000 0.000000 -96.000768 -1.216595 -1.082319 -41.116677 -2.171886 -27.732019 80.138691 6.093008 -3.065058 -3.971033 -0.125351 21.893893 5.532032 0.239803 -0.656450 0.000000 0.000000 0.000000 -94.658902 -3.409537 -4.144288 8.388222 -1.722893 1.128354 4.422130 -0.245023 0.195916 0.581910 -1.725143 -0.494186 0.000000 0.000000 0.000000 2.522110 -0.830215 0.679631 15.274864 -3.476728 0.089468 27.795359 -3.519527 0.182749 0.000000 0.000000 0.000000 1.647601 -0.452648 0.262531 1.613586 -10.252687 -9.200010 1.393842 4.037376 -1.272984 60.447598 -16.290443 -33.252790 -4.749699 -41.213409 -2.854573 0.000000 0.000000 0.000000 2.127433 -1.164740 0.104542 -3.428387 4.998317 19.362002 9.928311 7.187184 -4.034364 58.418868 21.910079 26.435539 -0.778699 23.477508 1.003805 0.000000 0.000000 0.000000 
10.594438 17.644493 227.511551 0.000000 0.000000 0.000000 -93.385966 -4.119684 -2.949857 -44.310248 -29.207333 26.733659 93.391021 -4.575976 4.351768 8.736309 -6.196382 -14.393056 -7.746047 -0.238043 -0.272840 0.000000 0.000000 0.000000 -95.567618 -1.101302 -1.466711 -39.254422 -3.849475 -27.628409 77.061036 5.647000 -2.805765 -5.098066 -0.495858 22.136911 5.744886 0.131888 -0.730344 0.000000 0.000000 0.000000 -94.043167 -3.568129 -4.634786 8.762275 -1.754053 1.468130 4.954809 -0.231193 0.181251 0.539195 -1.766515 -0.520991 0.000000 0.000000 0.000000 3.011444 -0.914524 0.638511 15.787779 -3.445185 -0.085090 28.717192 -3.682784 0.223379 0.000000 0.000000 0.000000 2.203713 -0.535405 0.187849 2.221514 -7.369877 -10.629216 2.086929 3.108927 -0.849300 59.251256 -16.153181 -30.243658 -5.016325 -41.290184 -3.048572 0.000000 0.000000 0.000000 2.732678 -1.219111 0.065532 -3.629990 5.836511 20.004108 9.411597 7.370703 -3.968881 56.403835 20.989445 26.561313 -0.819627 23.631430 1.028528 0.000000 0.000000 0.000000 
10.959438 17.852875 227.067673 0.000000 0.000000 0.000000 -92.912935 -4.087286 -3.361361 -45.935860 -28.721191 25.432155 93.814499 -3.995515 4.356290 8.953848 -6.446679 -13.719360 -8.154909 -0.238450 -0.215280 0.000000 0.000000 0.000000 -95.013320 -0.972160 -1.820922 -37.652545 -5.345880 -27.225528 74.015543 5.197093 -2.542327 -5.863556 -0.796997 22.319610 5.839460 0.012797 -0.750786 0.000000 0.000000 0.000000 -93.305589 -3.652364 -5.079237 9.141296 -1.713098 1.879658 5.546961 -0.224065 0.134460 0.613294 -1.795705 -0.449476 0.000000 0.000000 0.000000 3.521994 -0.996757 0.565338 16.044966 -3.350626 -0.151914 29.663641 -3.747685 0.333245 0.000000 0.000000 0.000000 2.828010 -0.644588 0.072614 3.007393 -4.081473 -12.033674 2.499549 2.203916 -0.513359 58.167353 -16.280121 -26.712913 -5.281820 -40.934212 -3.322688 0.000000 0.000000 0.000000 3.345432 -1.271150 -0.013416 -3.789181 6.557417 20.587140 9.091547 7.559168 -3.908901 54.294560 19.732469 26.737684 -0.832672 24.327438 1.053912 0.000000 0.000000 0.000000 
11.308659 17.951637 226.701675 0.000000 0.000000 0.000000 -92.306516 -4.174835 -3.874219 -47.507920 -28.093430 24.306355 94.049246 -3.421513 4.283202 8.812291 -6.680122 -12.716616 -8.602299 -0.241511 -0.135309 0.000000 0.000000 0.000000 -94.392962 -0.891440 -2.176164 -36.442119 -6.643436 -26.518037 71.024992 4.830951 -2.323791 -6.243010 -0.895980 22.562867 5.760577 -0.104471 -0.761249 0.000000 0.000000 0.000000 -92.440156 -3.663911 -5.483170 9.546116 -1.584411 2.287978 6.178890 -0.220637 0.059579 0.773437 -1.897966 -0.404214 0.000000 0.000000 0.000000 4.045924 -1.063815 0.449315 16.027958 -3.203446 -0.104566 30.537530 -3.732722 0.527099 0.000000 0.000000 0.000000 3.503946 -0.763350 -0.069322 3.954424 -0.510358 -13.258180 2.622237 1.276437 -0.301678 57.178775 -16.538521 -22.725412 -5.598896 -40.237348 -3.692861 0.000000 0.000000 0.000000 3.940797 -1.325159 -0.130237 -3.899886 7.095665 21.078517 9.018443 7.743210 -3.818470 51.978392 18.252268 27.164040 -0.821280 25.427415 1.080920 0.000000 0.000000 0.000000 
